<svg xmlns="http://www.w3.org/2000/svg" viewBox="0 0 512 640" x="0px" y="0px"><g><path d="M256,64V48a24.027,24.027,0,0,0-24,24h16A8.009,8.009,0,0,1,256,64Z"/><path d="M232,256h16a8.009,8.009,0,0,1,8-8V232A24.027,24.027,0,0,0,232,256Z"/><path d="M232,440h16a8.009,8.009,0,0,1,8-8V416A24.027,24.027,0,0,0,232,440Z"/><path d="M440,216a56,56,0,1,0-43.452-91.275L311.892,75.342c.065-1.107.108-2.219.108-3.342a56,56,0,0,0-112,0c0,1.123.043,2.235.108,3.342l-84.656,49.383A55.971,55.971,0,1,0,83.161,214.88l30.849,41.107L88.2,290.4a56.008,56.008,0,1,0,22.444,94.073l89.463,52.187c-.065,1.107-.108,2.219-.108,3.342a56,56,0,0,0,112,0c0-1.123-.043-2.235-.108-3.342l89.463-52.187A55.979,55.979,0,1,0,423.8,290.4L397.99,255.987l30.849-41.107A56.012,56.012,0,0,0,440,216Zm0-96a40,40,0,1,1-40,40A40.045,40.045,0,0,1,440,120Zm-51.681,18.448a55.892,55.892,0,0,0-3.266,32.342L349.6,191.47l-57.519-76.692A56.222,56.222,0,0,0,308.369,91.81ZM256,200a55.907,55.907,0,0,0-43.452,20.725l-36.237-21.139,57.228-76.3a55.824,55.824,0,0,0,44.922,0l57.228,76.3-36.237,21.139A55.907,55.907,0,0,0,256,200Zm40,56a40,40,0,1,1-40-40A40.045,40.045,0,0,1,296,256Zm-91.681-21.552a55.932,55.932,0,0,0,0,43.1l-37.644,21.959-32.663-43.526,32.634-43.513Zm8.229,56.827a55.913,55.913,0,0,0,86.9,0l36.2,21.12L278.4,388.69a55.842,55.842,0,0,0-44.8,0l-57.255-76.3Zm95.133-13.723a55.932,55.932,0,0,0,0-43.1l37.673-21.976,32.634,43.513-32.663,43.526ZM256,32a40,40,0,1,1-40,40A40.045,40.045,0,0,1,256,32ZM203.631,91.81a56.222,56.222,0,0,0,16.285,22.968L162.4,191.47l-35.45-20.68a55.892,55.892,0,0,0-3.266-32.342ZM72,200a40,40,0,1,1,40-40A40.045,40.045,0,0,1,72,200Zm26.849,9.129a56.39,56.39,0,0,0,22.655-22.99l31.229,18.217-28.725,38.3Zm25.164,60.188,28.749,38.31L124.369,324.19a56.3,56.3,0,0,0-21.4-26.817ZM72,384a40,40,0,1,1,40-40A40.045,40.045,0,0,1,72,384Zm48.605-12.242A55.635,55.635,0,0,0,128,344c0-1.123-.043-2.235-.108-3.342l34.538-20.147,57.536,76.668a56.216,56.216,0,0,0-16.335,23.011ZM256,480a40,40,0,1,1,40-40A40.045,40.045,0,0,1,256,480Zm52.369-59.81a56.216,56.216,0,0,0-16.335-23.011l57.536-76.668,34.538,20.147c-.065,1.107-.108,2.219-.108,3.342a55.635,55.635,0,0,0,7.395,27.758ZM440,304a40,40,0,1,1-40,40A40.045,40.045,0,0,1,440,304Zm-30.971-6.627a56.3,56.3,0,0,0-21.4,26.817l-28.393-16.563,28.749-38.31Zm-21.037-54.718-28.725-38.3L390.5,186.139a56.39,56.39,0,0,0,22.655,22.99Z"/><path d="M48,160H64a8.009,8.009,0,0,1,8-8V136A24.027,24.027,0,0,0,48,160Z"/><path d="M48,344H64a8.009,8.009,0,0,1,8-8V320A24.027,24.027,0,0,0,48,344Z"/><path d="M440,152V136a24.027,24.027,0,0,0-24,24h16A8.009,8.009,0,0,1,440,152Z"/><path d="M440,336V320a24.027,24.027,0,0,0-24,24h16A8.009,8.009,0,0,1,440,336Z"/></g><text x="0" y="527" fill="#000000" font-size="5px" font-weight="bold" font-family="'Helvetica Neue', Helvetica, Arial-Unicode, Arial, Sans-serif">Created by monkik</text><text x="0" y="532" fill="#000000" font-size="5px" font-weight="bold" font-family="'Helvetica Neue', Helvetica, Arial-Unicode, Arial, Sans-serif">from the Noun Project</text></svg>