<?xml version="1.0" encoding="UTF-8" standalone="no"?>
<!DOCTYPE svg PUBLIC "-//W3C//DTD SVG 1.1//EN" "http://www.w3.org/Graphics/SVG/1.1/DTD/svg11.dtd">
<svg width="100%" height="100%" viewBox="0 0 50 50" version="1.1" xmlns="http://www.w3.org/2000/svg" xmlns:xlink="http://www.w3.org/1999/xlink" xml:space="preserve" xmlns:serif="http://www.serif.com/" style="fill-rule:evenodd;clip-rule:evenodd;stroke-linejoin:round;stroke-miterlimit:2;">
    <g transform="matrix(1,0,0,1,-7.5,-7.5)">
        <path d="M53.343,28.516C51.596,28.516 50.124,29.654 49.588,31.221L42.097,20.283C42,18.172 40.266,16.48 38.132,16.48C36.106,16.48 34.447,18.005 34.198,19.964L30.802,19.964C30.553,18.005 28.894,16.48 26.868,16.48C24.734,16.48 23,18.171 22.903,20.282L15.412,31.22C14.875,29.653 13.404,28.515 11.658,28.515C9.461,28.515 7.674,30.303 7.674,32.499C7.674,34.696 9.461,36.483 11.658,36.483C13.405,36.483 14.876,35.346 15.412,33.779L22.903,44.717C23,46.828 24.734,48.52 26.868,48.52C28.893,48.52 30.553,46.995 30.802,45.036L34.198,45.036C34.447,46.995 36.105,48.52 38.132,48.52C40.267,48.52 42,46.828 42.097,44.716L49.588,33.778C50.124,35.345 51.596,36.483 53.343,36.483C55.539,36.483 57.326,34.696 57.326,32.499C57.326,30.303 55.539,28.516 53.343,28.516ZM42.064,32C41.815,30.041 40.157,28.516 38.131,28.516C36.506,28.516 35.11,29.496 34.491,30.894L32.996,26.576L34.559,22.196C35.205,23.524 36.556,24.448 38.13,24.448C39.876,24.448 41.348,23.31 41.884,21.743L48.91,32L42.064,32ZM41.115,32.5C41.115,34.146 39.777,35.484 38.132,35.484C36.487,35.484 35.148,34.145 35.148,32.5C35.148,30.855 36.487,29.516 38.132,29.516C39.777,29.516 41.115,30.854 41.115,32.5ZM33.938,33L32.5,37.031L31.062,33L33.938,33ZM31.062,32L32.46,28.082L33.816,32L31.062,32ZM32.475,25.066L31.056,20.964L33.939,20.964L32.475,25.066ZM31.938,26.572L30.441,30.769C29.794,29.441 28.443,28.516 26.869,28.516C24.844,28.516 23.185,30.041 22.936,32L16.09,32L23.114,21.744C23.651,23.311 25.122,24.449 26.868,24.449C28.434,24.449 29.778,23.533 30.429,22.216L31.938,26.572ZM29.853,32.5C29.853,34.146 28.514,35.484 26.869,35.484C25.224,35.484 23.885,34.145 23.885,32.5C23.885,30.855 25.223,29.516 26.869,29.516C28.515,29.516 29.853,30.854 29.853,32.5ZM22.936,33C23.185,34.959 24.844,36.484 26.869,36.484C28.443,36.484 29.794,35.559 30.441,34.231L31.97,38.517L30.441,42.804C29.794,41.476 28.443,40.551 26.869,40.551C25.122,40.551 23.651,41.689 23.115,43.256L16.09,33L22.936,33ZM32.5,40.005L33.938,44.036L31.062,44.036L32.5,40.005ZM33.031,38.518L34.56,34.232C35.206,35.56 36.557,36.485 38.131,36.485C40.156,36.485 41.815,34.96 42.064,33.001L48.91,33.001L41.886,43.258C41.35,41.691 39.879,40.553 38.132,40.553C36.558,40.553 35.207,41.478 34.561,42.806L33.031,38.518ZM38.132,17.479C39.778,17.479 41.115,18.818 41.115,20.463C41.115,22.108 39.777,23.447 38.132,23.447C36.487,23.447 35.148,22.108 35.148,20.463C35.148,18.818 36.486,17.479 38.132,17.479ZM26.869,17.479C28.515,17.479 29.853,18.818 29.853,20.463C29.853,22.108 28.514,23.447 26.869,23.447C25.224,23.447 23.885,22.108 23.885,20.463C23.885,18.818 25.223,17.479 26.869,17.479ZM11.658,35.484C10.012,35.484 8.674,34.145 8.674,32.5C8.674,30.855 10.012,29.516 11.658,29.516C13.304,29.516 14.642,30.855 14.642,32.5C14.642,34.145 13.303,35.484 11.658,35.484ZM26.869,47.521C25.223,47.521 23.885,46.182 23.885,44.537C23.885,42.892 25.223,41.553 26.869,41.553C28.515,41.553 29.853,42.892 29.853,44.537C29.853,46.182 28.514,47.521 26.869,47.521ZM38.132,47.521C36.486,47.521 35.148,46.182 35.148,44.537C35.148,42.892 36.487,41.553 38.132,41.553C39.777,41.553 41.115,42.892 41.115,44.537C41.115,46.182 39.777,47.521 38.132,47.521ZM53.343,35.484C51.697,35.484 50.359,34.145 50.359,32.5C50.359,30.855 51.698,29.516 53.343,29.516C54.988,29.516 56.326,30.855 56.326,32.5C56.326,34.145 54.988,35.484 53.343,35.484Z" style="fill:white;fill-rule:nonzero;"/>
    </g>
</svg>
